<?xml version="1.0" encoding="UTF-8" standalone="no"?>
<!-- Created with Inkscape (http://www.inkscape.org/) -->

<svg
   width="400"
   height="400"
   viewBox="0 0 105.83333 105.83333"
   version="1.1"
   id="svg5"
   xml:space="preserve"
   xmlns="http://www.w3.org/2000/svg"
   xmlns:svg="http://www.w3.org/2000/svg"><defs
     id="defs2" /><g
     id="layer1"><g
       id="g309"
       transform="matrix(0.30700934,0,0,0.33526353,13.403925,1.7701743)"><path
         style="fill:#f9e707;stroke-width:0.264583"
         d="m 105.9386,166.6731 c -1.51628,-0.37244 -2.79793,-1.15331 -3.84464,-2.34243 -1.75229,-1.99071 -1.8439,-2.63087 -1.8439,-12.88483 v -9.02443 l -3.373436,-2.54655 c -1.85539,-1.4006 -5.168958,-4.09325 -7.363483,-5.98368 -15.290575,-13.17169 -24.59273,-24.396 -31.066824,-37.486336 -3.645167,-7.370363 -5.249254,-13.159213 -5.855412,-21.131088 -0.653103,-8.589255 0.658188,-14.66947 4.929778,-22.858472 2.125858,-4.075451 3.375906,-5.714114 7.527184,-9.86723 2.53175,-2.532872 4.167875,-3.890984 6.891779,-5.720713 1.964531,-1.319635 4.335819,-2.783525 5.269529,-3.253089 4.920731,-2.474626 11.346576,-4.391546 17.299751,-5.160753 3.96571,-0.512408 6.315234,-0.508513 10.620504,0.01762 6.79151,0.829951 10.38138,2.151338 15.80814,5.818783 5.3625,3.624024 11.07774,9.281924 12.59951,12.473114 0.22719,0.476419 0.49806,0.866217 0.60194,0.866217 0.10387,0 0.44784,-0.496859 0.76437,-1.104133 0.90566,-1.737545 3.31604,-4.803836 4.99002,-6.347899 4.13349,-3.812693 9.80509,-7.700785 13.44142,-9.214593 11.67341,-4.859651 28.48824,-2.733244 41.22138,5.212866 7.36774,4.597825 13.34159,11.10095 16.92007,18.419153 2.29756,4.698635 3.42898,9.301427 3.88613,15.809293 0.64057,9.118888 -1.02329,16.622317 -5.83316,26.305519 -6.1307,12.342301 -14.81845,23.216091 -27.28495,34.150461 -6.33886,5.55981 -10.06081,8.64346 -12.34268,10.22595 l -1.91823,1.33031 v 9.18023 c 0,10.349 -0.058,10.74543 -1.87493,12.80955 -0.57279,0.65072 -1.60565,1.461 -2.29523,1.80061 l -1.25379,0.61746 -27.91355,0.042 c -15.35244,0.0231 -28.27072,-0.0457 -28.70729,-0.15293 z m 50.81203,-9.13748 c 0.78581,-0.78582 0.81533,-1.42771 0.12765,-2.77568 -0.57629,-1.1296 -1.61371,-2.05937 -2.56392,-2.29786 -0.34016,-0.0854 -0.61847,-0.24104 -0.61847,-0.34592 0,-0.20223 3.59446,-19.99611 3.86275,-21.27135 0.15139,-0.71953 0.2117,-0.74607 1.50271,-0.66146 l 1.34499,0.0882 1.20884,-6.87917 1.20884,-6.87916 h 0.92604 0.92604 l 0.18388,-5.15938 c 0.39396,-11.05405 0.53944,-14.313832 0.63456,-14.218719 0.0772,0.07726 2.04379,10.767239 2.90425,15.787399 0.19787,1.1544 1.66669,2.66465 2.59155,2.66465 1.51498,0 1.52916,-2.06935 0.0242,-3.53096 -0.8856,-0.86008 -0.89976,-0.91281 -2.21883,-8.25847 -3.54477,-19.740216 -3.49632,-19.302926 -2.2147,-19.988827 1.06412,-0.5695 3.06059,-2.920777 3.84824,-4.532148 2.4842,-5.082148 1.82377,-10.921934 -1.65065,-14.595617 -1.82211,-1.926609 -3.48945,-2.654811 -6.08686,-2.658404 -1.49935,-0.0021 -2.30256,0.142658 -3.28621,0.592153 -2.67047,1.220317 -4.92267,3.744608 -5.95121,6.670196 -0.28139,0.800365 -0.61003,1.457031 -0.73032,1.459259 -0.83636,0.01551 -1.2296,1.33368 -0.4833,1.62006 0.298,0.114353 0.39688,0.592836 0.39688,1.920483 0,3.320748 1.04005,6.065536 3.16104,8.342244 l 1.25051,1.342329 -0.43033,1.449681 -0.43034,1.449681 -4.4152,2.036551 -4.4152,2.036548 -4.63628,-3.297373 c -4.41115,-3.137254 -4.63628,-3.340002 -4.63628,-4.175201 0,-1.024596 -0.92513,-2.168091 -1.96526,-2.429148 -0.69743,-0.175043 -1.47433,0.226206 -1.47433,0.761455 0,0.15452 -0.25867,0.824551 -0.57483,1.488959 -0.65655,1.379754 -8.51202,9.806971 -9.14161,9.806971 -1.02848,0 -11.10037,-2.497264 -11.45022,-2.839013 -0.3522,-0.344038 -0.33926,-0.422005 0.11492,-0.692563 1.24973,-0.744471 2.75503,-2.381975 3.3994,-3.697946 0.93623,-1.912043 1.23397,-3.32699 1.24171,-5.901102 0.005,-1.582619 0.11126,-2.237383 0.40334,-2.479792 0.55244,-0.45848 0.49523,-0.959437 -0.16214,-1.419881 -0.30747,-0.215355 -0.81485,-1.151726 -1.12752,-2.080821 -1.77272,-5.267666 -6.00618,-9.033933 -10.15455,-9.033933 h -1.68148 l -0.97155,-1.574043 -0.97156,-1.574043 -0.59483,1.292923 c -0.32716,0.711108 -0.8921,1.977533 -1.25543,2.814278 l -0.6606,1.521354 -1.66121,0.01524 c -0.913667,0.0084 -2.099743,0.09768 -2.635731,0.198437 l -0.974519,0.18319 1.731423,2.778125 c 0.952283,1.527969 1.853417,2.854642 2.002518,2.948165 0.149103,0.09352 0.196921,0.465571 0.106264,0.826777 -0.23722,0.945158 0.277736,4.640776 0.897775,6.442954 l 0.53037,1.541552 -1.495127,2.915925 c -1.209111,2.358104 -1.501296,3.178035 -1.527365,4.28607 -0.03795,1.613136 0.564523,2.62549 1.969212,3.308932 0.8658,0.421246 1.05975,0.412142 4.08397,-0.191722 3.9268,-0.78409 4.19864,-0.797026 3.87524,-0.184383 -0.13444,0.254661 -1.87258,5.088638 -3.86254,10.742168 -3.39661,9.64989 -3.68187,10.33981 -4.659675,11.26997 -1.18722,1.12938 -1.386557,2.19242 -0.500078,2.66685 0.712584,0.38137 2.363923,-0.39907 2.813133,-1.32951 0.17564,-0.3638 1.23647,-3.31308 2.3574,-6.55395 1.12094,-3.24087 2.07139,-5.85917 2.11212,-5.81843 0.0737,0.0737 -4.25589,27.13629 -4.49268,28.082 -0.11883,0.47459 0.027,0.48637 3.36539,0.27191 1.91928,-0.12329 4.20138,-0.22747 5.07133,-0.2315 l 1.58171,-0.007 2.04589,10.31875 c 1.12524,5.67531 2.05058,10.46199 2.0563,10.63706 0.006,0.17507 -0.41302,0.51925 -0.93056,0.76484 -1.80166,0.85494 -2.86977,3.12367 -1.97705,4.19935 0.82825,0.99797 3.46668,0.15988 4.38367,-1.39246 l 0.46116,-0.78068 0.9256,0.62813 c 1.77496,1.20452 4.55593,0.6313 4.55593,-0.93907 0,-0.81017 -1.26951,-2.09972 -2.40075,-2.43865 -0.77465,-0.2321 -1.04031,-0.45198 -1.04464,-0.86468 -0.003,-0.30438 -0.17966,-4.24437 -0.39213,-8.75551 -0.21247,-4.51115 -0.38845,-9.10857 -0.39106,-10.2165 l -0.005,-2.01441 2.84427,-0.18326 c 1.56435,-0.1008 3.27682,-0.2491 3.80548,-0.32956 l 0.96122,-0.14629 -6.18175,-18.54105 c -3.39996,-10.19758 -6.14454,-18.578268 -6.09905,-18.623752 0.0455,-0.04549 2.66918,0.517168 5.83044,1.250344 l 5.74773,1.333045 2.55749,-2.722618 c 1.40662,-1.497439 3.63248,-3.821094 4.94635,-5.16368 l 2.38886,-2.441061 5.42396,3.952663 c 2.98317,2.173965 5.60727,3.957052 5.83133,3.962418 0.22405,0.0054 2.10943,-0.773853 4.18972,-1.731594 2.0803,-0.957742 3.83179,-1.691918 3.89221,-1.631501 0.0604,0.06042 -0.29818,1.409568 -0.79689,2.998118 -2.03365,6.477929 -6.50178,21.236308 -6.50178,21.475618 0,0.14117 0.61146,0.32908 1.3588,0.41759 0.74734,0.0885 1.42048,0.22261 1.49587,0.298 0.0754,0.0754 -0.54716,2.78776 -1.38345,6.02749 -0.83628,3.23973 -1.53919,6.00131 -1.56201,6.13684 -0.0228,0.13553 0.59263,0.39262 1.36767,0.57132 0.77504,0.1787 1.44332,0.36546 1.48506,0.41504 0.0417,0.0496 -0.13961,5.15029 -0.40301,11.33492 -0.26341,6.18464 -0.4852,11.43902 -0.49288,11.67641 -0.009,0.28505 -0.41075,0.53152 -1.18248,0.72584 -1.56332,0.39365 -2.80024,1.63596 -2.80024,2.81244 0,2.17166 3.25019,2.69174 5.2565,0.84113 0.60267,-0.5559 0.6376,-0.55914 0.92604,-0.086 0.75749,1.2425 1.39724,1.86043 2.39563,2.31387 1.40902,0.63995 1.6406,0.62578 2.41407,-0.14769 z m -40.04664,-13.28908 c -0.88278,-4.22348 -2.48027,-12.8231 -2.39725,-12.90482 0.0542,-0.0533 0.5374,-0.17895 1.0738,-0.27914 0.94858,-0.17717 0.97911,-0.15791 1.11557,0.70401 0.15594,0.98502 0.65617,13.53707 0.54479,13.67057 -0.0387,0.0464 -0.19034,-0.48936 -0.33691,-1.19062 z m 35.8487,-1.93649 c 0.0553,-1.09141 0.20256,-4.52473 0.32722,-7.62961 0.14042,-3.49744 0.33876,-5.75733 0.52132,-5.93989 0.2165,-0.2165 0.29466,-0.17535 0.29466,0.15513 0,0.25044 0.20522,0.45158 0.46302,0.45384 1.2005,0.0105 1.19926,0.14585 -0.0645,7.0296 -1.40708,7.66434 -1.68343,8.72745 -1.54171,5.93093 z M 61.623113,137.6287 c 0.0021,-0.4361 0.687147,-4.45659 2.132923,-12.51657 0.300185,-1.67348 0.651221,-3.69755 0.780079,-4.49791 0.128857,-0.80037 0.36671,-2.22912 0.528561,-3.175 l 0.294272,-1.71979 -3.390379,-3.30885 c -3.608546,-3.52177 -4.048974,-4.0066 -5.890495,-6.48433 -0.647457,-0.87115 -1.540426,-1.96074 -1.984375,-2.4213 l -0.807178,-0.8374 -2.116667,0.34692 c -1.164166,0.1908 -3.307291,0.42695 -4.762499,0.52478 -1.455209,0.0978 -4.37224,0.40528 -6.482292,0.68322 -4.23046,0.55726 -8.303432,0.76463 -8.630787,0.43943 -0.116052,-0.11529 1.153321,-1.53251 2.820828,-3.14939 8.090956,-7.845291 12.86914,-12.543204 13.027925,-12.80906 0.09627,-0.161181 0.05544,-0.696962 -0.09074,-1.190625 -0.762373,-2.574702 -1.352661,-6.671899 -1.575924,-10.93853 -0.247473,-4.729279 -0.251614,-4.751964 -0.981684,-5.381191 -1.299501,-1.12 -6.300753,-4.100013 -11.977954,-7.137104 -0.945886,-0.506013 -2.612761,-1.448636 -3.704167,-2.094719 -4.060086,-2.403459 -4.118522,-2.327129 2.38125,-3.110545 3.287607,-0.396256 14.037911,-1.880367 15.709019,-2.168676 1.199766,-0.206991 1.450356,-0.565425 3.515783,-5.02884 0.750983,-1.622885 2.353932,-4.421584 3.562109,-6.21933 1.852983,-2.757209 2.195626,-3.434217 2.189927,-4.326961 -0.005,-0.783936 -0.805957,-2.785448 -3.089235,-7.719724 C 50.250467,27.269388 47.59798,20.95265 47.59798,20.328738 c 0,-0.321905 0.34467,-0.330867 0.674687,-0.01754 0.138245,0.131252 1.322917,0.801976 2.632604,1.490499 1.309688,0.688523 2.976563,1.57745 3.704167,1.975395 0.727604,0.397944 2.096823,1.138275 3.042708,1.645179 0.945885,0.506905 3.518426,1.891839 5.716754,3.077631 2.19833,1.185794 4.193424,2.155989 4.433541,2.155989 0.240115,0 1.821844,-0.786445 3.514952,-1.747655 3.81884,-2.16803 5.886183,-3.110678 9.024075,-4.114719 2.734072,-0.87483 2.919857,-1.06995 3.487365,-3.662625 0.175191,-0.800364 0.481877,-2.169583 0.681524,-3.042708 0.199644,-0.873125 0.793451,-3.4925 1.31957,-5.820833 1.144643,-5.065621 2.269013,-9.9279033 2.40144,-10.3848957 0.171045,-0.5902657 0.507558,-0.3520172 0.952095,0.6740736 0.239421,0.5526416 2.489425,5.1960789 5.000006,10.3187501 l 4.564695,9.313946 2.007717,0.0047 c 4.05817,0.0096 10.00293,1.230593 13.1914,2.709395 l 1.12951,0.523863 1.38403,-1.26766 c 0.76122,-0.697214 2.03888,-1.874587 2.83924,-2.616386 0.80037,-0.741798 2.46701,-2.239355 3.70365,-3.327904 1.23664,-1.088548 2.42727,-2.159744 2.64583,-2.380433 1.53437,-1.549268 6.13498,-5.551871 6.38136,-5.551871 0.36582,0 0.26451,0.918264 -0.64219,5.820833 -0.36333,1.964531 -0.91825,5.060156 -1.23315,6.879166 -0.3149,1.819011 -0.80262,4.515197 -1.08381,5.991524 -0.2812,1.476328 -0.51127,2.9849 -0.51127,3.352382 0,0.50542 0.61737,1.237131 2.53482,3.004309 1.39416,1.284888 2.67408,2.364571 2.84427,2.399295 0.1702,0.03473 1.52488,-1.096367 3.0104,-2.513542 l 2.70095,-2.576676 -0.38375,-1.719792 c -0.21107,-0.945885 -0.67554,-3.446198 -1.03217,-5.55625 -0.35663,-2.110052 -1.07194,-6.071899 -1.58959,-8.804104 -1.0256,-5.413201 -1.10999,-6.28013 -0.61045,-6.271298 0.1819,0.0032 1.10803,0.747357 2.05808,1.653646 0.95004,0.906289 3.56941,3.312752 5.82083,5.347695 2.25141,2.034942 4.15301,3.761348 4.22577,3.836458 0.0728,0.07511 1.17783,1.073879 2.4557,2.219489 l 2.32341,2.082927 1.51305,-0.677704 c 3.10683,-1.391563 8.97451,-2.562109 12.84329,-2.562109 h 1.94101 l 4.47688,-9.171157 c 5.77099,-11.8222293 5.49269,-11.2819913 5.79741,-11.2539884 0.14422,0.013253 0.69667,1.9651914 1.22769,4.3376418 0.53101,2.3724504 1.34751,5.9804206 1.81445,8.0177126 0.46693,2.037292 1.00391,4.421172 1.19328,5.297512 0.772,3.572679 1.3379,4.888946 2.10186,4.888946 1.43971,0 8.31948,3.04062 12.18593,5.385763 0.87313,0.529582 1.78853,0.963184 2.03423,0.963557 0.24569,2.64e-4 1.07913,-0.338701 1.85208,-0.753499 0.77295,-0.414798 3.25083,-1.739961 5.5064,-2.944806 2.25557,-1.204845 4.87495,-2.60719 5.82083,-3.116323 7.0362,-3.78731 7.20978,-3.866577 7.01637,-3.204133 -0.2505,0.857926 -1.6964,4.672082 -1.97656,5.213961 -0.12508,0.24192 -0.55011,1.213761 -0.94452,2.159647 -0.39441,0.945885 -1.10326,2.553229 -1.57521,3.571874 -0.47196,1.018646 -1.12631,2.447396 -1.45412,3.175 -0.3278,0.727604 -1.05893,2.316618 -1.62473,3.53114 -0.5658,1.214522 -1.02873,2.535663 -1.02873,2.935872 0,0.475456 0.85989,2.027431 2.48101,4.477869 1.43531,2.169554 3.01143,4.963597 3.73946,6.629037 0.69215,1.583354 1.51045,3.187274 1.81847,3.564271 0.63143,0.772848 0.66512,0.778539 18.8989,3.193145 2.95508,0.391324 3.49147,0.527595 3.48694,0.885844 -0.003,0.237508 -2.36246,1.710724 -5.68624,3.550406 -9.20382,5.094264 -11.88727,6.700872 -13.15349,7.875122 -0.37283,0.345739 -0.50324,1.265968 -0.73298,5.172263 -0.31573,5.368316 -0.34403,5.580263 -1.24495,9.323723 l -0.6546,2.71994 6.43779,6.27957 c 3.54082,3.453763 7.21003,7.013822 8.15385,7.911242 0.94382,0.89742 1.6174,1.7292 1.49686,1.84841 -0.34253,0.3387 -4.14327,0.15578 -8.63685,-0.41567 -2.25557,-0.28684 -5.70839,-0.65798 -7.67292,-0.82474 -1.96453,-0.16677 -4.07339,-0.42616 -4.68636,-0.57641 -1.28456,-0.31489 -1.23491,-0.34863 -2.99213,2.03355 -1.56249,2.1182 -5.21481,6.40236 -5.81875,6.82537 -0.26553,0.18599 -1.32588,1.13699 -2.35632,2.11334 -2.00807,1.90266 -2.09768,2.13778 -1.60855,4.22051 0.25736,1.09584 0.74863,3.82627 2.41663,13.4314 1.23348,7.10296 1.20363,6.77143 0.56975,6.32735 -0.41487,-0.29065 -3.848,-3.39701 -6.26965,-5.6729 -0.15895,-0.14938 -1.89847,-1.71122 -3.8656,-3.47077 -1.96714,-1.75954 -3.71691,-3.36822 -3.88839,-3.57484 -0.25259,-0.30436 0.0748,-0.80131 1.72453,-2.61778 5.67369,-6.2471 8.73866,-10.14275 12.28513,-15.61466 6.13207,-9.46129 9.77122,-18.186949 11.08272,-26.573272 0.41389,-2.646592 0.40345,-10.029637 -0.0189,-13.361458 -1.88935,-14.904727 -10.9328,-27.173623 -25.54773,-34.659614 -4.74877,-2.432393 -9.46521,-3.967344 -15.60865,-5.079784 -4.61648,-0.835942 -12.04791,-0.842044 -16.1535,-0.01326 -5.24944,1.059686 -8.33857,2.35635 -13.2107,5.545207 -4.86595,3.184805 -9.74315,7.585672 -11.67614,10.53579 -0.24234,0.36985 -0.5281,0.638294 -0.63502,0.59654 -0.10692,-0.04175 -0.83449,-0.875001 -1.61681,-1.85166 -3.12054,-3.895703 -10.37671,-9.638326 -15.2861,-12.097609 -4.87147,-2.440286 -10.37837,-3.561595 -17.489435,-3.561183 -6.731084,3.97e-4 -12.485933,1.146796 -19.305367,3.845761 -3.903533,1.544923 -5.157261,2.223563 -9.401924,5.089236 -5.112668,3.451683 -10.330627,8.524584 -13.174636,12.808389 -1.601721,2.4126 -4.327091,8.150309 -5.305319,11.169274 -1.491514,4.60303 -1.859655,7.145051 -1.839245,12.699999 0.04384,11.932946 2.825495,20.700404 10.556872,33.274054 3.178664,5.1695 5.612323,8.35622 11.801842,15.45378 1.861444,2.13452 3.384444,3.93682 3.384444,4.0051 0,0.0683 -1.160859,1.17014 -2.579687,2.44858 -3.1544,2.84229 -7.255825,6.58915 -9.533303,8.70915 -2.330571,2.16943 -2.704298,2.41944 -2.701459,1.80715 z"
         id="path313" /><path
         style="fill:#32322f;stroke-width:0.264583"
         d="m 20.596224,292.05477 c -0.602982,-0.3737 -0.385312,-2.72095 0.502113,-5.41452 1.645193,-4.99358 8.904237,-25.12024 14.600298,-40.48124 1.780712,-4.80219 3.29727,-8.96938 3.370123,-9.26042 0.07285,-0.29104 -0.915464,1.01864 -2.196262,2.91042 -4.784709,7.06714 -9.097838,12.48609 -10.147879,12.74963 -2.183818,0.54811 -3.45745,-5.80319 -2.424054,-12.08818 0.828532,-5.03904 2.839617,-11.21093 4.512633,-13.84901 1.135589,-1.79063 2.988254,-3.49864 4.365463,-4.0246 2.128639,-0.81294 4.100571,-0.007 4.100571,1.67497 0,0.37183 -0.902788,2.20866 -2.006193,4.08184 -4.450101,7.55464 -7.89324,15.78634 -7.730799,18.48242 l 0.0797,1.32279 7.643916,-10.71215 c 4.204152,-5.89168 7.978732,-11.29839 8.387955,-12.01491 1.772492,-3.10352 5.409647,-4.92712 6.884842,-3.45192 1.247519,1.24751 0.879475,2.21168 -11.38832,29.83398 -1.187423,2.67361 -2.12395,4.89339 -2.08117,4.93285 0.04278,0.0395 2.48979,-3.93398 5.437809,-8.82987 2.948017,-4.89587 6.561828,-10.85666 8.030692,-13.24618 1.806331,-2.93851 2.936311,-5.10849 3.491486,-6.70496 1.227733,-3.53049 3.52516,-5.7515 5.949392,-5.7515 1.821582,0 1.949707,1.75235 0.316426,4.32777 -2.210986,3.48636 -3.646017,7.52111 -3.258365,9.16127 0.576762,2.44028 3.334951,1.99958 6.440815,-1.02911 1.14403,-1.11561 1.723546,-1.96801 2.35512,-3.46409 0.460737,-1.09141 1.253321,-2.55371 1.761297,-3.24957 1.726065,-2.36446 3.870573,-2.67709 4.532884,-0.66079 0.384286,1.16989 0.368922,1.2295 -2.406248,9.33432 -1.953474,5.70507 -4.256238,13.32423 -4.080227,13.50024 0.04894,0.0489 3.480628,-4.98979 7.625966,-11.1972 6.34913,-9.50745 7.673211,-11.33972 8.401368,-11.62585 0.810252,-0.3184 0.88238,-0.30018 1.151681,0.29087 0.437507,0.96023 -0.146487,2.04241 -6.393596,11.84769 -6.530133,10.24951 -8.777742,13.4984 -10.272633,14.84894 -2.47514,2.23614 -4.173053,1.35874 -4.464237,-2.3069 -0.118137,-1.48718 0.819576,-8.00396 1.876734,-13.04269 0.19082,-0.90951 0.283493,-1.65365 0.205941,-1.65365 -0.07755,0 -0.503859,0.3495 -0.947348,0.77666 -1.244584,1.19875 -3.764698,2.6061 -5.269905,2.94295 -2.540122,0.56845 -4.490048,-0.51343 -5.105162,-2.83251 -0.215183,-0.81128 -0.298709,-0.70582 -3.247903,4.10104 -14.59067,23.78117 -18.624206,30.99694 -23.605619,42.22906 -3.018155,6.80537 -3.941162,8.19785 -4.999305,7.54211 z m 163.526756,-9.46968 c 0,-0.22143 3.47621,-16.98084 3.83736,-18.50056 0.11426,-0.48083 0.32452,-0.59532 1.09331,-0.59532 0.87263,0 0.94133,0.055 0.8254,0.66146 -0.0695,0.3638 -0.0239,0.66146 0.10145,0.66146 0.12534,0 0.22789,-0.0971 0.22789,-0.21586 0,-0.11873 0.4627,-0.47591 1.02821,-0.79375 1.92436,-1.08155 4.23791,-0.54314 4.94576,1.15098 0.87072,2.08391 0.1037,7.16483 -1.55117,10.27541 -0.99893,1.87764 -2.31531,2.84009 -4.12186,3.01368 -1.13461,0.10904 -1.37536,0.033 -2.20669,-0.69694 l -0.93314,-0.81928 -0.63187,2.97257 -0.63187,2.97256 -0.99139,0.0821 c -0.54527,0.0452 -0.99139,-0.0307 -0.99139,-0.16854 z m 7.41742,-6.40075 c 1.40352,-0.75115 3.03184,-5.70605 2.84706,-8.66354 -0.12472,-1.99614 -0.56954,-2.56128 -1.98444,-2.52117 -1.87775,0.0532 -3.3016,2.51532 -4.06477,7.02872 -0.33406,1.9757 -0.17678,3.39905 0.44423,4.02008 0.46145,0.46143 2.00731,0.53763 2.75792,0.13591 z m 4.22424,5.45796 c 0,-0.0567 0.23813,-1.26047 0.52917,-2.67496 0.29104,-1.41449 0.52917,-2.6103 0.52917,-2.6574 0,-0.0471 0.32505,-0.12324 0.72234,-0.1693 0.57502,-0.0667 0.92678,-0.43445 1.72478,-1.80351 1.12299,-1.92662 1.74445,-3.83249 2.60977,-8.00365 l 0.59005,-2.84427 h 3.94123 c 3.6294,0 3.93039,0.0366 3.80412,0.46302 -0.15062,0.50865 -2.54438,11.89967 -2.54438,12.10779 0,0.0711 0.29766,0.12919 0.66146,0.12919 0.3638,0 0.66146,0.0464 0.66146,0.10316 0,0.0568 -0.23813,1.26048 -0.52917,2.67497 -0.29104,1.41449 -0.52916,2.61821 -0.52916,2.67496 0,0.0567 -0.4323,0.10316 -0.96066,0.10316 -0.9533,0 -0.95939,-0.007 -0.79375,-0.92604 0.0918,-0.50932 0.24202,-1.34276 0.33382,-1.85208 l 0.16691,-0.92604 h -4.11783 c -4.54924,0 -4.1788,-0.15079 -4.55037,1.85208 -0.3304,1.78094 -0.38189,1.85208 -1.34075,1.85208 -0.49951,0 -0.90821,-0.0464 -0.90821,-0.10316 z m 9.89615,-5.91611 c 0.0782,-0.25466 0.60576,-2.69544 1.17229,-5.42396 l 1.03005,-4.96093 h -1.91199 -1.912 l -0.45629,2.3151 c -0.61315,3.111 -1.3229,5.18401 -2.40055,7.01146 l -0.89715,1.52135 h 2.61671 c 2.26153,0 2.63601,-0.0628 2.75893,-0.46302 z m 13.39132,5.68854 c 0.002,-0.1819 0.16524,-1.01534 0.36214,-1.85208 l 0.35801,-1.52135 h -4.18299 c -2.30064,0 -4.23643,-0.0893 -4.30176,-0.19844 -0.10865,-0.18153 2.53755,-13.19709 2.84714,-14.00387 0.12075,-0.31467 2.00291,-0.52919 2.00291,-0.22828 0,0.12771 -2.27306,10.95637 -2.51541,11.98319 -0.13816,0.58539 -0.0986,0.59531 2.36788,0.59531 h 2.50838 l 0.25759,-0.99218 c 0.14166,-0.54571 0.6977,-3.13532 1.23564,-5.75469 1.25073,-6.09018 1.19635,-5.95313 2.36212,-5.95313 0.83669,0 0.92284,0.0641 0.80023,0.59532 -0.22794,0.98761 -2.51851,11.9127 -2.51851,12.01224 0,0.0509 0.29765,0.0924 0.66145,0.0924 0.36381,0 0.66146,0.0464 0.66146,0.10316 0,0.0568 -0.23812,1.26048 -0.52916,2.67497 -0.29105,1.41449 -0.52917,2.61821 -0.52917,2.67496 0,0.0567 -0.41672,0.10316 -0.92604,0.10316 -0.56665,0 -0.92444,-0.12835 -0.92191,-0.33073 z M 41.538069,277.97126 c -1.084379,-0.55729 -1.710055,-1.65616 -1.728475,-3.0357 l -0.01682,-1.25989 0.988727,-0.0819 c 0.953416,-0.079 0.98388,-0.0553 0.853054,0.66145 -0.07462,0.40887 0.01624,1.03273 0.201901,1.38639 0.737838,1.40547 3.518217,1.20193 4.449688,-0.32572 0.512085,-0.83984 0.691621,-2.69111 0.3156,-3.25425 -0.314018,-0.47029 -1.295746,-0.8995 -2.057384,-0.8995 -0.536136,0 -0.668319,-0.10123 -0.54656,-0.41852 0.08833,-0.23019 0.160599,-0.58737 0.160599,-0.79375 0,-0.24188 0.286724,-0.37523 0.806889,-0.37523 1.75822,0 2.897278,-1.1884 2.897278,-3.02276 0,-1.13022 -0.585338,-1.60395 -1.937983,-1.56849 -1.066459,0.028 -1.888569,0.6556 -2.692987,2.05593 -0.187923,0.32716 -0.520441,0.43633 -1.139595,0.37415 l -0.87425,-0.0878 0.630741,-1.19062 c 0.346908,-0.65485 1.137872,-1.54782 1.757698,-1.98438 0.992309,-0.69891 1.348118,-0.79375 2.977954,-0.79375 1.756146,0 1.890557,0.0443 2.623042,0.86407 0.586846,0.6568 0.772047,1.12417 0.772047,1.94835 0,1.38744 -0.880928,2.96185 -1.992046,3.5602 l -0.861139,0.46376 0.897427,0.84638 c 0.757833,0.71475 0.896519,1.02674 0.891614,2.00578 -0.0067,1.34665 -0.710004,3.02533 -1.616543,3.85874 -1.399024,1.28614 -4.291584,1.82194 -5.760474,1.06706 z m 9.743725,-0.43878 c -0.586255,-0.58624 -0.773041,-1.01841 -0.771921,-1.78594 0.0044,-3.03139 1.294955,-4.55224 5.10859,-6.02028 2.828179,-1.08868 3.092016,-1.37226 3.092016,-3.32332 0,-0.92059 -0.0858,-1.04892 -0.875524,-1.30956 -1.324391,-0.43708 -2.428518,0.0467 -3.015771,1.32136 -0.410512,0.89106 -0.592424,1.0305 -1.352056,1.0364 -0.789365,0.006 -0.859237,-0.0531 -0.694084,-0.58849 0.75587,-2.45033 2.339687,-3.64196 4.830181,-3.63412 1.615424,0.005 2.458206,0.44846 3.014128,1.58569 0.480462,0.98287 0.524449,0.6821 -1.559447,10.66271 -0.126457,0.60566 -0.05067,0.77023 0.410187,0.89074 0.618685,0.1618 0.633293,0.20217 0.395001,1.09183 -0.141671,0.52893 -0.30616,0.59841 -1.253159,0.52917 -0.984552,-0.0719 -1.119738,-0.16931 -1.396421,-1.00571 -0.246917,-0.74641 -0.342746,-0.83486 -0.494019,-0.45601 -0.312057,0.78153 -2.298359,1.77893 -3.542718,1.77893 -0.88687,0 -1.283435,-0.16185 -1.894983,-0.7734 z m 4.620165,-1.63121 c 0.386334,-0.3039 0.867093,-0.87096 1.068353,-1.26016 0.436766,-0.8446 1.082797,-3.95997 0.866114,-4.17663 -0.30829,-0.3083 -3.923993,1.59191 -4.45915,2.34349 -0.754756,1.05995 -0.933998,2.6325 -0.364921,3.20156 0.611579,0.61159 2.04263,0.55796 2.889604,-0.10826 z m 54.750121,2.01734 c -1.84908,-0.8042 -2.29875,-3.82506 -1.17547,-7.89665 1.35762,-4.92107 3.57732,-7.09302 6.86968,-6.72192 1.78993,0.20175 2.68919,1.28388 2.68919,3.23606 v 1.45103 h -0.92604 c -0.8852,0 -0.92605,-0.0416 -0.92605,-0.94343 0,-1.23383 -0.36103,-1.86742 -1.18141,-2.07333 -1.08758,-0.27296 -2.39449,0.45472 -3.1587,1.75875 -0.9023,1.53963 -1.75807,4.93421 -1.77686,7.0482 -0.0183,2.06333 0.52307,2.79742 2.03163,2.75466 1.18647,-0.0336 2.06791,-0.81814 2.65942,-2.36701 0.39826,-1.04281 0.52297,-1.15076 1.32958,-1.15076 1.06491,0 1.09367,0.2199 0.25952,1.98438 -0.699,1.47857 -1.7742,2.60339 -2.89238,3.02588 -1.01954,0.38521 -2.78614,0.33602 -3.80211,-0.10586 z m 23.59694,0.13486 c -0.29104,-0.12039 -0.82635,-0.53867 -1.18958,-0.92948 -1.82089,-1.95927 -0.35949,-9.8528 2.28906,-12.36397 2.11076,-2.00128 5.79434,-2.03971 7.08239,-0.0739 1.47133,2.24553 0.16477,9.36603 -2.17756,11.86719 -1.38154,1.47521 -4.30109,2.20466 -6.00431,1.50016 z m 3.42283,-1.70791 c 1.15872,-0.48414 2.11201,-2.11659 2.79462,-4.78552 0.69322,-2.7105 0.70411,-5.15065 0.0267,-5.98721 -0.3885,-0.47977 -0.74794,-0.61441 -1.58196,-0.59254 -1.38454,0.0363 -2.26783,0.62625 -2.9553,1.97377 -1.26422,2.47809 -1.99595,7.42432 -1.29272,8.73829 0.51894,0.96965 1.65894,1.21716 3.00866,0.65321 z m 8.98298,1.701 c -0.8803,-0.35568 -1.64768,-1.52551 -1.83941,-2.80408 -0.4049,-2.70005 1.23743,-8.62933 2.87785,-10.38995 1.46591,-1.57331 4.0566,-2.08654 5.64462,-1.11822 1.13646,0.69297 1.52858,1.99145 1.32581,4.39024 -0.25017,2.9595 0.0115,2.773 -3.89091,2.773 -1.88215,0 -3.46558,0.11311 -3.55252,0.25378 -0.25585,0.41397 -0.48822,3.60614 -0.31326,4.30324 0.0889,0.35417 0.46148,0.78055 0.82798,0.94753 1.4514,0.66132 3.30064,-0.47221 3.76909,-2.31029 0.20573,-0.80725 0.33146,-0.9089 1.14531,-0.92604 0.82722,-0.0175 0.9053,0.0435 0.82049,0.64063 -0.23029,1.62155 -1.82514,3.66197 -3.29694,4.21807 -0.87641,0.33112 -2.72454,0.34274 -3.51811,0.022 z m 5.82213,-9.15503 c 0.3389,-0.88315 0.16851,-3.21429 -0.261,-3.57075 -0.62481,-0.51855 -2.10993,-0.42947 -2.76839,0.16604 -0.6413,0.57999 -1.40941,2.00186 -1.6723,3.09562 l -0.17487,0.72761 h 2.35798 c 1.90609,0 2.38876,-0.0802 2.51858,-0.41852 z m 11.88553,9.02708 c -1.17202,-0.50975 -1.67076,-1.61856 -1.67076,-3.71454 0,-3.24824 1.22677,-7.24665 2.79167,-9.09886 1.44754,-1.71332 4.31385,-2.40196 5.95717,-1.43123 0.75038,0.44326 1.56991,1.99574 1.56991,2.97393 0,1.00151 -0.30373,1.33922 -1.20444,1.33922 -0.86575,0 -0.88483,-0.0249 -0.96388,-1.25468 -0.0684,-1.06413 -0.18919,-1.30648 -0.79538,-1.59577 -1.71524,-0.81856 -3.31961,0.56154 -4.32827,3.72326 -0.80709,2.52986 -1.13621,5.88327 -0.66402,6.76558 0.45042,0.84158 1.48646,1.17335 2.55896,0.81939 0.91111,-0.3007 1.7765,-1.41579 2.09779,-2.70309 0.15351,-0.61503 0.32044,-0.72761 1.07896,-0.72761 1.02147,0 1.09673,0.25197 0.50105,1.67762 -0.54245,1.29826 -1.93266,2.82546 -2.9645,3.2566 -1.08949,0.45521 -2.88003,0.44175 -3.96426,-0.0298 z m 11.231,-0.0269 c -0.39835,-0.21614 -0.90437,-0.74123 -1.12448,-1.16689 -0.8019,-1.5507 -0.31817,-6.38535 0.91997,-9.19454 1.32912,-3.01561 2.94835,-4.30564 5.40441,-4.30564 1.0868,0 1.39307,0.12723 2.16542,0.89958 0.8374,0.8374 0.89958,1.01775 0.89958,2.6089 0,0.94014 -0.0757,2.26174 -0.16825,2.93688 l -0.16826,1.22756 h -3.50723 c -3.98817,0 -3.63264,-0.23813 -3.95017,2.64583 -0.27424,2.49073 0.89975,3.63056 2.88503,2.80106 0.76054,-0.31776 1.09146,-0.69614 1.58514,-1.81244 0.51986,-1.1755 0.73511,-1.40873 1.29043,-1.39817 0.36657,0.007 0.74966,0.0959 0.85132,0.19762 0.26282,0.26294 -0.30396,1.75675 -1.10523,2.91298 -1.24641,1.79856 -4.1992,2.61226 -5.97768,1.64727 z m 6.29197,-10.03678 c 0.53502,-4.28218 -3.93683,-3.72263 -4.80151,0.60079 l -0.17087,0.85434 h 2.39528 2.39529 z m 44.36252,10.05234 c -0.58447,-0.25392 -1.00767,-0.70625 -1.28998,-1.37872 -0.78756,-1.87584 0.005,-7.21262 1.50492,-10.12891 0.59463,-1.15637 2.00676,-2.52456 2.98718,-2.89419 1.81612,-0.6847 3.97425,-0.14269 4.6796,1.17529 0.41968,0.78416 0.49991,3.03004 0.17722,4.96005 l -0.21011,1.25677 h -3.52104 -3.52105 l -0.16402,0.99218 c -0.27908,1.68857 -0.18708,3.64557 0.19606,4.16955 0.49644,0.67892 2.06325,0.65831 3.00588,-0.0396 0.40111,-0.29694 0.90421,-1.03513 1.11802,-1.64042 0.24958,-0.70662 0.54959,-1.1005 0.83825,-1.1005 0.24726,0 0.63786,-0.0723 0.86805,-0.16061 0.87074,-0.33411 0.26175,1.92554 -0.92573,3.43498 -1.21258,1.54139 -3.87008,2.16795 -5.74325,1.35409 z m 6.12838,-9.42404 c 0.41349,-2.0674 0.0746,-3.23912 -1.01605,-3.51285 -1.59861,-0.40122 -3.18659,1.09141 -3.7021,3.47978 l -0.18561,0.8599 h 2.36919 2.36921 z m -171.549214,9.31741 c 0,-0.13237 1.285997,-2.0076 2.85777,-4.16719 1.571776,-2.15958 2.948508,-4.07614 3.059409,-4.25899 0.121621,-0.20056 -0.316561,-1.19801 -1.104194,-2.51355 -2.167512,-3.62028 -2.112862,-3.37169 -0.741206,-3.37169 h 1.179978 l 1.792348,3.37344 1.792346,3.37344 0.626692,-3.04271 c 0.812501,-3.94484 0.69728,-3.70417 1.773346,-3.70417 1.13199,0 1.12822,-0.0514 0.281305,3.83646 l -0.633987,2.91042 3.223199,-3.3827 c 3.023434,-3.17306 3.284696,-3.38214 4.215389,-3.37345 0.545704,0.005 0.992188,0.0965 0.992188,0.20319 0,0.10666 -1.185191,1.38658 -2.633758,2.84427 l -2.633757,2.65035 1.30702,4.23334 c 0.71886,2.32833 1.30874,4.32263 1.310841,4.43177 0.0021,0.10914 -0.468241,0.19844 -1.045205,0.19844 -1.266957,0 -1.244896,0.037 -2.405305,-4.03633 l -0.886053,-3.11028 -0.993061,0.9697 c -0.546182,0.53332 -1.068556,1.33765 -1.160833,1.78736 -0.917794,4.473 -0.882414,4.38955 -1.861304,4.38955 -1.078965,0 -1.101677,-0.14748 -0.467354,-3.03425 0.414702,-1.88729 0.41261,-2.04612 -0.04019,-3.05024 -0.262713,-0.58259 -0.548878,-1.05397 -0.635916,-1.04746 -0.08704,0.007 -1.269142,1.61382 -2.626894,3.57187 -2.458193,3.54502 -2.473026,3.56008 -3.505729,3.56008 -0.570399,0 -1.03709,-0.1083 -1.03709,-0.24067 z m 18.784638,0.0582 c -0.0019,-0.50512 2.695054,-13.23392 2.918394,-13.77431 0.237794,-0.57536 0.364461,-0.59532 3.779488,-0.59532 1.943399,0 3.600516,0.0671 3.682482,0.14903 0.08197,0.082 0.06371,0.46892 -0.04058,0.8599 -0.188746,0.70763 -0.202235,0.7112 -2.959841,0.7854 l -2.770233,0.0745 -1.31228,6.27547 -1.312278,6.27546 -0.992187,0.0821 c -0.545703,0.0452 -0.992537,-0.0143 -0.992966,-0.13229 z m 9.525778,-0.0544 c 0,-0.13031 0.654844,-3.35746 1.455208,-7.17143 0.800365,-3.81397 1.455209,-6.98158 1.455209,-7.03912 0,-0.0575 0.416718,-0.10463 0.926041,-0.10463 0.564809,0 0.925775,0.12901 0.925357,0.33073 -0.0011,0.45005 -2.044116,10.27539 -2.271771,10.92459 -0.100031,0.28525 1.526781,-2.1305 3.615137,-5.36834 l 3.797009,-5.88698 h 1.134318 c 0.62388,0 1.13433,0.10322 1.13433,0.22937 0,0.12615 -0.65485,3.36746 -1.455213,7.20291 -0.800365,3.83545 -1.455208,7.00646 -1.455208,7.04668 0,0.0402 -0.416719,0.0731 -0.926042,0.0731 -0.612079,0 -0.926042,-0.12409 -0.926042,-0.36603 0,-0.38407 2.012458,-9.96397 2.285315,-10.87877 0.08681,-0.29104 -1.552736,2.11974 -3.643429,5.35731 l -3.801261,5.88645 h -1.124479 c -0.618463,2.7e-4 -1.124479,-0.10609 -1.124479,-0.2364 z m 30.893188,0.0654 c -0.11192,-0.19773 2.50681,-13.19039 2.8318,-14.04983 0.0883,-0.23356 0.88544,-0.33061 2.71306,-0.33032 4.02285,5.3e-4 5.37443,0.96171 4.98689,3.54604 -0.15095,1.00658 -0.41996,1.49855 -1.29472,2.36778 l -1.10418,1.09723 0.72761,0.71072 c 0.92888,0.90737 0.95935,2.22007 0.0946,4.07715 -0.9952,2.13731 -1.97314,2.59869 -5.75091,2.71328 -1.69214,0.0513 -3.13401,-0.008 -3.20417,-0.13205 z m 6.16313,-1.95297 c 1.11524,-0.59688 1.78858,-3.4975 0.96967,-4.17714 -0.3661,-0.30385 -3.52817,-0.50313 -3.79228,-0.23902 -0.0884,0.0885 -0.32924,0.9712 -0.53508,1.96167 -0.20585,0.99047 -0.43886,2.00922 -0.51782,2.26388 -0.12676,0.40886 0.0617,0.46302 1.61146,0.46302 0.96526,0 1.98408,-0.12258 2.26405,-0.27241 z m 1.05834,-6.61459 c 0.63747,-0.34118 1.30826,-1.60951 1.30826,-2.47366 0,-1.13628 -0.66143,-1.52028 -2.46827,-1.43293 l -1.61305,0.078 -0.32905,1.5875 c -0.53323,2.57262 -0.55957,2.51354 1.12047,2.51354 0.80993,0 1.70167,-0.12258 1.98164,-0.27242 z m 51.73028,-8.34544 c -0.53853,-0.53853 -0.52412,-1.13397 0.0486,-2.01035 0.36987,-0.56594 17.0035,-15.51856 19.90711,-17.89529 l 0.74517,-0.60995 -1.71688,-3.42494 c -0.94428,-1.88372 -1.74956,-3.42494 -1.78949,-3.42494 -0.0399,0 -0.52703,0.74414 -1.08243,1.65364 -5.30804,8.69225 -10.51988,15.39337 -14.41123,18.52924 -2.29367,1.84837 -4.08289,2.7401 -5.95312,2.96697 -3.46419,0.42022 -4.84737,-2.35699 -4.54562,-9.12694 0.4283,-9.60957 4.60061,-21.10918 9.13732,-25.18406 5.85101,-5.25539 10.1812,1.77904 7.14723,11.61075 -1.62068,5.25191 -5.01354,9.54916 -8.22147,10.41297 -1.04279,0.28079 -2.75073,0.10514 -3.00683,-0.30923 -0.0797,-0.12903 -0.29721,-0.23459 -0.48325,-0.23459 -0.44929,0 -1.21801,4.32046 -1.21801,6.84564 0,2.38797 0.2668,2.94394 1.41272,2.94394 2.77863,0 9.22537,-6.78333 15.71592,-16.53646 3.34287,-5.02322 4.50094,-7.20391 4.70705,-8.86354 0.36805,-2.96358 1.73437,-5.02708 3.32862,-5.02708 0.95942,0 1.43606,0.87305 1.82357,3.34021 0.31226,1.98809 1.52773,6.87368 1.86782,7.5077 0.17723,0.3304 0.24631,0.30824 0.41244,-0.13229 1.93064,-5.1194 7.88124,-19.13054 8.32582,-19.60378 0.90337,-0.96159 2.36949,-0.88188 3.26073,0.1773 0.80349,0.9549 1.0688,1.83041 0.86439,2.85247 -0.081,0.4052 -1.64203,3.8834 -3.46887,7.72933 l -3.32152,6.9926 3.7827,-3.83646 c 3.76562,-3.81912 7.73449,-8.52438 8.54865,-10.13476 0.94143,-1.86212 1.66264,-2.56524 2.63128,-2.56524 1.40573,0 2.01975,1.14994 1.91235,3.58149 -0.07,1.58433 -0.21494,2.06854 -0.97311,3.25004 -1.05082,1.63759 -5.29444,5.60305 -13.59045,12.69966 -3.3106,2.83197 -6.01927,5.25361 -6.01927,5.38143 0,0.46657 2.73338,5.68093 3.6017,6.87082 0.49129,0.67323 1.25869,1.37542 1.70534,1.56043 0.71444,0.29593 0.89753,0.27321 1.52283,-0.18902 1.47845,-1.09288 3.98678,-4.4487 9.48859,-12.69449 6.47984,-9.71158 5.54636,-8.85946 10.95031,-9.99617 1.80983,-0.38069 3.64779,-0.82072 4.08435,-0.97784 2.84493,-1.02389 7.12052,-1.57088 9.212,-1.17851 2.30121,0.43171 3.39645,2.9323 2.83268,6.46738 -0.3584,2.24714 -1.45007,5.85807 -2.65292,8.775 l -0.78783,1.91052 0.72512,-0.16103 c 0.39881,-0.0886 1.27804,-0.23639 1.95382,-0.32849 1.13471,-0.15464 1.26526,-0.11164 1.7068,0.56223 0.46537,0.71025 0.46214,0.77545 -0.12163,2.44816 -3.15087,9.02815 -7.85262,15.83721 -7.37293,10.67741 0.0759,-0.81678 0.56268,-2.78938 1.08167,-4.38355 0.51898,-1.59416 0.91839,-2.91836 0.88759,-2.94265 -0.0308,-0.0243 -0.88947,0.0553 -1.90812,0.17676 -1.01865,0.12152 -4.94771,0.46239 -8.73125,0.7575 -3.78354,0.2951 -7.44966,0.609 -8.14694,0.69754 l -1.26778,0.16098 -1.43368,2.81793 c -1.56756,3.08106 -2.06218,3.78311 -3.00694,4.268 -0.51257,0.26307 -0.69844,0.24912 -1.02445,-0.0769 -0.51388,-0.51388 -0.13887,-2.26883 1.16978,-5.47423 0.50498,-1.23693 1.02264,-2.51043 1.15035,-2.83 0.24606,-0.61575 0.50508,-0.70886 4.68696,-1.68479 2.30113,-0.53703 2.49428,-0.63572 3.26085,-1.66605 1.30832,-1.75846 3.11166,-5.75532 4.47736,-9.92344 0.69774,-2.12947 1.34837,-4.24991 1.44587,-4.7121 l 0.17727,-0.84033 -1.67036,0.38941 c -4.25265,0.99143 -4.31787,1.02632 -5.5317,2.95945 -3.4535,5.50012 -11.71101,16.91496 -14.06457,19.44229 -1.32761,1.42563 -2.00861,1.55429 -3.83611,0.72475 -1.31426,-0.59656 -4.24993,-3.48664 -5.73249,-5.64345 -0.56989,-0.82908 -1.10567,-1.50301 -1.19063,-1.49764 -0.0849,0.005 -1.7555,3.36889 -3.71233,7.47448 -4.15681,8.72132 -4.3102,8.97953 -5.26809,8.86859 -1.34198,-0.15543 -1.09753,-1.31092 1.80638,-8.53864 1.45968,-3.63308 2.65396,-6.64203 2.65396,-6.68655 0,-0.17982 -13.80443,11.43188 -16.15375,13.58785 -1.01206,0.92876 -1.95018,1.68867 -2.0847,1.68867 -0.13452,0 -0.43168,-0.1871 -0.66036,-0.41578 z m 61.46058,-18.82453 c 0.69559,-0.11979 0.97158,-0.34873 1.264,-1.04859 0.77089,-1.84503 1.75665,-6.59782 1.78551,-8.60891 0.0257,-1.78127 -0.046,-2.11804 -0.55978,-2.6323 -0.69942,-0.7001 -1.97535,-0.74537 -3.19735,-0.11344 -1.0518,0.5439 -1.80227,1.85324 -3.47613,6.06476 -1.60618,4.04126 -2.64967,6.16233 -3.56923,7.25516 -0.37263,0.44287 -0.67754,0.86216 -0.67754,0.93174 0,0.0696 1.69664,-0.28336 3.77031,-0.78432 2.07367,-0.50097 4.17076,-0.97981 4.66021,-1.0641 z m -61.71425,-1.57016 c 1.10551,-0.84322 2.30195,-2.76638 3.06016,-4.91895 0.44763,-1.27082 0.58656,-2.27924 0.59857,-4.34452 0.009,-1.47926 -0.0862,-2.78895 -0.21061,-2.91042 -0.37557,-0.36664 -2.39584,2.17334 -3.67614,4.62182 -1.12236,2.14643 -3.10908,7.08084 -3.10908,7.72201 0,0.41437 1.08893,0.79643 1.8221,0.63929 0.34731,-0.0744 1.02906,-0.43858 1.515,-0.80923 z M 9.887738,257.27151 c 0.357529,-5.96622 2.818609,-29.0621 4.651981,-43.65625 0.92778,-7.38539 3.103996,-22.77564 3.329731,-23.54792 0.258611,-0.88476 -0.221179,-0.2188 -2.9546,4.10104 -11.1843867,17.67558 -20.5464588,31.10354 -29.487195,42.29331 -4.351943,5.44666 -7.780611,8.98099 -10.032366,10.34152 -3.723534,2.24979 -9.429512,4.0956 -13.667905,4.42139 -1.967328,0.15122 -2.261671,0.11129 -2.987115,-0.40527 -1.389741,-0.98959 -1.332527,-2.02633 0.185986,-3.37016 1.041127,-0.92136 2.972284,-1.56577 6.99154,-2.33299 8.561911,-1.63436 11.507284,-3.05863 16.692696,-8.072 7.524059,-7.27442 14.5776838,-18.02453 28.75209,-43.81975 2.793304,-5.08338 5.855848,-10.61172 6.805657,-12.28521 1.66904,-2.94072 1.759993,-3.19791 2.713551,-7.67292 1.835095,-8.61203 4.751864,-18.1783 6.978116,-22.88646 1.238699,-2.61965 1.832443,-3.32764 2.352934,-2.80571 0.476416,0.47773 0.326382,5.46507 -0.320905,10.66714 -0.302612,2.43202 -0.550204,4.55665 -0.550204,4.72139 0,0.16475 0.430559,-0.21774 0.956799,-0.84997 1.428002,-1.71563 4.068517,-4.23751 4.337746,-4.14288 0.64007,0.22499 -2.537468,7.55877 -5.513184,12.72448 -0.898395,1.55957 -1.633444,3.01515 -1.633444,3.23462 0,0.84926 -3.583528,19.93543 -6.110044,32.5426 -4.37311,21.82158 -10.921884,52.30217 -11.3975992,53.04895 -0.1646529,0.25848 -0.1975247,-0.52579 -0.094266,-2.24895 z m 82.684454,-1.33595 c -0.34467,-0.90655 -0.04715,-2.06539 1.389169,-5.41093 1.07638,-2.50714 3.818366,-9.57803 7.784799,-20.07503 0.79039,-2.09173 1.65917,-4.23485 1.93063,-4.7625 0.91454,-1.77761 2.98724,-3.23999 4.65939,-3.28739 2.15731,-0.0611 2.28116,1.62901 0.37814,5.16037 -0.72893,1.35264 -2.16185,4.10319 -3.18427,6.11233 l -1.85894,3.653 3.64729,-0.1796 c 2.00601,-0.0988 3.71752,-0.25434 3.80337,-0.3457 0.0858,-0.0914 0.53394,-1.65439 0.99577,-3.4734 0.48666,-1.91679 1.14733,-3.80787 1.57142,-4.49791 0.89373,-1.45423 2.96157,-2.91042 4.13288,-2.91042 2.07257,0 2.01875,1.60398 -0.21261,6.33609 -0.92996,1.97218 -2.01102,4.59782 -2.40237,5.83474 -1.19494,3.77683 -1.83673,7.9375 -1.22438,7.9375 0.25011,0 5.94685,-9.73229 7.43388,-12.7 2.78042,-5.54897 6.96111,-10.33443 10.5837,-12.1147 3.35315,-1.64786 7.01437,-0.39166 6.93558,2.37965 -0.0309,1.086 -0.36382,1.34517 -2.64671,2.06028 -3.50366,1.09751 -7.76972,4.79666 -10.87025,9.4257 -2.88683,4.31 -5.76802,11.12011 -6.04418,14.28631 -0.16285,1.86708 0.0713,2.16628 1.22752,1.5684 2.44615,-1.26496 7.39284,-9.77683 8.64282,-14.87188 0.94354,-3.84598 0.95844,-3.87757 2.01854,-4.27872 0.91162,-0.34497 1.07514,-0.32637 2.24895,0.25575 2.26591,1.1237 2.26584,2.48703 -5.2e-4,10.41734 -0.49906,1.74625 -0.85409,3.23453 -0.78896,3.30729 0.31681,0.35393 2.16913,-2.52649 7.74168,-12.03854 1.7903,-3.05594 3.48986,-5.7654 3.77681,-6.02103 0.63643,-0.56698 2.42871,-1.10228 6.36961,-1.9024 1.64612,-0.33422 3.25628,-0.74859 3.57812,-0.92084 0.96899,-0.51859 4.44427,-1.07761 6.69919,-1.07761 2.44503,0 3.36333,0.39839 4.26916,1.85209 1.23015,1.97417 0.47086,7.0828 -1.91333,12.87321 l -1.04026,2.52642 0.70698,-0.15756 c 2.26871,-0.50563 3.29725,-0.5111 3.65674,-0.0195 0.19664,0.26892 0.35753,0.75986 0.35753,1.09098 0,0.7967 -2.65413,7.34294 -4.05249,9.99521 -1.20088,2.27771 -2.85468,4.24455 -3.40681,4.05167 -0.64314,-0.22468 -0.31613,-3.03951 0.71024,-6.11355 0.52756,-1.58008 0.92247,-2.90428 0.87757,-2.94265 -0.0449,-0.0384 -0.91507,0.0296 -1.93372,0.15115 -1.01864,0.12152 -4.9477,0.46239 -8.73125,0.7575 -3.78354,0.2951 -7.45737,0.61006 -8.16406,0.69989 l -1.28491,0.16334 -0.90757,1.99155 c -1.77584,3.89682 -3.60082,5.94848 -4.48538,5.04251 -0.5737,-0.58758 0.0755,-2.96435 2.2763,-8.33395 0.25235,-0.61569 0.51271,-0.709 4.71837,-1.69109 2.32772,-0.54355 2.51833,-0.64047 3.27637,-1.66604 1.31699,-1.78178 3.05621,-5.70205 4.58748,-10.34036 0.79121,-2.39673 1.43859,-4.52952 1.43859,-4.73955 0,-0.33238 -0.2143,-0.33191 -1.65364,0.004 -0.90951,0.21203 -2.27006,0.56458 -3.02346,0.78346 l -1.36981,0.39794 -2.03602,3.49256 c -5.71995,9.81187 -8.93734,14.54766 -10.68221,15.72354 -1.12135,0.75567 -1.66535,0.75696 -2.52166,0.006 -0.812,-0.71213 -1.33463,-3.09177 -1.08593,-4.94447 0.19736,-1.4702 0.0281,-1.2842 -1.6985,1.86607 -2.16326,3.94706 -5.7151,7.1133 -7.97961,7.1133 -1.93824,0 -2.87416,-1.48153 -2.87416,-4.54971 v -1.92086 l -0.81323,0.98659 c -0.44727,0.54262 -1.34337,1.29727 -1.99133,1.677 -1.03859,0.60865 -1.26907,0.65273 -1.94633,0.3722 -1.37479,-0.56946 -1.7314,-1.77374 -1.7314,-5.84705 v -3.59329 l -3.92781,-0.30935 c -2.1603,-0.17014 -4.04423,-0.2374 -4.18652,-0.14947 -0.14228,0.0879 -0.83246,1.36788 -1.53372,2.84431 -5.608732,11.80856 -6.638313,13.66463 -7.579934,13.66463 -0.208949,0 -0.495302,-0.30352 -0.636344,-0.67449 z m 64.034118,-13.51135 c 1.09141,-0.25109 2.12807,-0.58504 2.3037,-0.74211 0.44668,-0.39949 1.84745,-5.98492 2.07086,-8.25735 0.23736,-2.41443 -0.13261,-3.6552 -1.20099,-4.02764 -1.04394,-0.36392 -2.56195,0.0812 -3.42399,1.00403 -0.37281,0.39909 -1.55411,2.85772 -2.62511,5.46362 -1.07101,2.6059 -2.45598,5.52449 -3.07772,6.48576 l -1.13043,1.74776 2.54965,-0.60878 c 1.40231,-0.33483 3.44262,-0.81421 4.53403,-1.06529 z m 97.39146,12.17287 c -0.31102,-0.39536 -0.63236,-1.02692 -0.71411,-1.40346 -0.0817,-0.37654 -0.19341,-0.83065 -0.24813,-1.00914 -0.15433,-0.50332 0.38275,-6.28399 0.83021,-8.93589 1.09183,-6.47054 3.08824,-14.09201 4.32406,-16.50744 0.884,-1.72783 2.03814,-2.67485 3.25977,-2.67485 1.22015,0 2.1544,0.56587 2.56305,1.5524 0.27403,0.66161 0.14986,1.03974 -1.27739,3.88971 -1.78805,3.57046 -3.29922,7.27406 -4.47283,10.96205 -0.92512,2.90709 -2.17345,7.40834 -2.05454,7.40834 0.0446,0 0.77089,-1.16086 1.61385,-2.57969 6.01782,-10.12868 10.21413,-14.3137 12.28042,-12.2474 1.35837,1.35837 1.8487,6.31935 0.93816,9.49211 -0.86159,3.00229 -3.122,5.76817 -6.35169,7.77208 -2.52913,1.56923 -4.12999,1.59215 -4.63354,0.0663 -0.38386,-1.16304 -0.14288,-1.50318 1.38925,-1.96091 1.82496,-0.54522 2.93362,-1.21585 4.09773,-2.47876 1.82581,-1.98078 2.17387,-4.6853 0.72514,-5.63455 -0.59801,-0.39183 -0.70223,-0.38681 -1.41271,0.0682 -1.83827,1.17711 -3.8843,4.21944 -6.91274,10.27888 -2.4624,4.92685 -2.85817,5.32243 -3.94396,3.94205 z m 18.84068,-0.14134 c -0.67897,-0.34496 -1.40297,-1.73661 -1.40297,-2.69671 0,-0.99581 1.24743,-7.59963 2.00371,-10.60758 1.33186,-5.29718 3.39487,-10.31225 5.12075,-12.44827 2.2398,-2.77206 5.83647,-4.07356 7.27683,-2.63321 0.62881,0.62881 0.53356,0.93094 -1.00629,3.19206 -1.68423,2.47318 -3.98012,6.97143 -5.48396,10.74452 -1.04593,2.62423 -2.88396,8.58234 -2.88396,9.34861 0,0.79666 0.72223,0.27774 3.4358,-2.46855 3.15515,-3.19322 6.94417,-8.14336 11.21807,-14.65583 2.9583,-4.50778 4.03238,-5.62074 4.80528,-4.9793 0.93414,0.77528 0.19219,2.44366 -3.69091,8.29945 -5.75847,8.68386 -11.57666,15.5615 -15.33962,18.13289 -1.4011,0.95744 -3.06414,1.27419 -4.05273,0.77192 z M 129.41577,205.27127 c -3.02123,-0.3797 -7.94693,-1.55085 -10.06592,-2.39333 -4.28115,-1.7021 -5.81402,-3.60618 -4.67552,-5.8078 1.04349,-2.01789 3.44119,-2.09305 8.8314,-0.27684 4.94892,1.66752 6.53502,1.95246 10.74329,1.92997 4.09924,-0.0219 6.21709,-0.43174 9.9574,-1.92687 4.26828,-1.70618 7.22126,-1.68053 8.9798,0.078 2.21757,2.21757 -0.37792,4.90463 -6.43214,6.65908 -5.07887,1.4718 -13.07648,2.27338 -17.33831,1.73778 z m -26.9656,-12.69055 c -0.77778,-0.31564 -1.14177,-1.06917 -1.14177,-2.36369 0,-1.28257 0.63137,-2.03292 1.90347,-2.26218 0.48106,-0.0867 14.78574,-0.1231 31.78817,-0.0809 l 30.91352,0.0767 0.50575,0.62463 c 0.67623,0.83517 0.67623,2.67809 -1e-5,3.51325 l -0.50576,0.62462 -31.44268,0.0511 c -17.80386,0.0289 -31.6934,-0.0507 -32.02069,-0.18351 z m 0,-6.61458 c -0.77778,-0.31565 -1.14177,-1.06918 -1.14177,-2.3637 0,-1.17616 0.60898,-2.01449 1.64691,-2.26715 0.33112,-0.0806 14.63219,-0.1134 31.78014,-0.0729 l 31.17809,0.0737 0.50576,0.62462 c 0.67624,0.83518 0.67624,2.67808 0,3.51326 l -0.50576,0.62462 -31.44268,0.0511 c -17.80386,0.0289 -31.6934,-0.0507 -32.02069,-0.18351 z m -0.49234,-6.73469 c -0.85105,-0.85105 -0.91606,-2.78811 -0.12027,-3.5839 0.52329,-0.52329 0.88195,-0.52917 32.27917,-0.52917 31.39722,0 31.75588,0.006 32.27916,0.52917 0.38598,0.38598 0.52917,0.88194 0.52917,1.83288 0,1.09328 -0.11252,1.39222 -0.69714,1.85208 -0.6964,0.54779 -0.73051,0.54837 -32.1589,0.54837 h -31.46176 z m -0.0742,-6.31293 c -0.41902,-0.44603 -0.57528,-0.9439 -0.57528,-1.83288 0,-1.73331 0.77802,-2.31103 3.14453,-2.33496 l 1.75026,-0.0177 -1.11495,-0.34844 c -2.69437,-0.84206 -4.65123,-2.56241 -5.869759,-5.16034 l -0.688211,-1.46728 -0.08169,-9.26041 -0.08169,-9.26042 -1.991546,-1.41952 C 93.909285,140.05881 88.820382,135.82093 84.11979,131.6105 74.542064,123.03151 67.079676,114.4741 61.725277,105.92984 53.628529,93.009499 50.739126,84.103884 50.694404,71.930886 c -0.0204,-5.554948 0.347731,-8.096969 1.839245,-12.699999 0.978228,-3.018965 3.703598,-8.756674 5.305319,-11.169274 2.844009,-4.283805 8.061968,-9.356706 13.174636,-12.808389 4.244663,-2.865673 5.498391,-3.544313 9.401924,-5.089236 6.819434,-2.698965 12.574283,-3.84537 19.305367,-3.845761 7.111065,-4.23e-4 12.617965,1.120897 17.489435,3.561183 4.90939,2.459283 12.16556,8.201906 15.2861,12.097609 0.78232,0.976659 1.50989,1.809906 1.61681,1.85166 0.10692,0.04175 0.39268,-0.226689 0.63502,-0.59654 1.93299,-2.950117 6.81019,-7.350985 11.67614,-10.53579 4.87213,-3.188856 7.96126,-4.485521 13.2107,-5.545207 4.10559,-0.828781 11.53702,-0.822679 16.1535,0.01326 6.14344,1.112439 10.85988,2.64739 15.60865,5.079784 8.12294,4.160697 14.54416,9.797184 18.98851,16.667948 4.87623,7.538442 6.85699,14.684753 6.89351,24.870832 0.0172,4.795139 -0.2648,7.117075 -1.39955,11.523887 -3.17077,12.313766 -10.95067,25.017247 -23.61976,38.567697 -3.97833,4.2551 -14.53249,13.62687 -19.82946,17.60795 l -2.56435,1.9273 -0.0815,9.30586 -0.0815,9.30585 -0.72712,1.37929 c -1.35766,2.57542 -3.22108,4.16812 -5.83086,4.98374 l -1.11494,0.34844 1.87211,0.0177 c 1.60175,0.0151 1.95518,0.10613 2.44739,0.63006 0.77833,0.82849 0.79764,2.75336 0.0358,3.57108 l -0.53948,0.57905 h -31.69357 -31.69357 z m 61.92955,-6.75198 c 0.68958,-0.33961 1.72244,-1.14989 2.29523,-1.80062 1.81691,-2.06411 1.87493,-2.46055 1.87493,-12.80954 v -9.18024 l 1.91823,-1.3303 c 3.72153,-2.5809 15.36079,-12.64471 19.55489,-16.90801 3.87757,-3.94153 8.90542,-9.81299 11.64808,-13.60247 6.85866,-9.47647 11.59963,-19.152022 13.42919,-27.406778 1.61311,-7.278201 1.13777,-16.91015 -1.18675,-24.047092 -2.86711,-8.802862 -9.91138,-17.404823 -18.79082,-22.946029 -10.99191,-6.859497 -25.56721,-9.527269 -36.6465,-6.707549 -3.60828,0.918318 -6.16765,2.057693 -9.71473,4.324773 -6.38625,4.0817 -11.17225,8.66635 -13.29159,12.732403 -0.31653,0.607274 -0.6605,1.104133 -0.76437,1.104133 -0.10388,0 -0.37475,-0.389798 -0.60194,-0.866217 -1.52177,-3.19119 -7.23701,-8.84909 -12.59951,-12.473114 -5.42676,-3.667445 -9.01663,-4.988833 -15.80814,-5.818783 -4.30527,-0.526121 -6.654794,-0.530016 -10.620504,-0.01762 -5.953175,0.769207 -12.37902,2.686127 -17.299751,5.160753 -0.93371,0.469564 -3.304998,1.933453 -5.269529,3.253089 -2.723904,1.829729 -4.360029,3.18784 -6.891779,5.720712 -4.151278,4.153117 -5.401326,5.79178 -7.527184,9.867231 -4.27159,8.189002 -5.582881,14.269216 -4.929778,22.858472 0.606158,7.971875 2.210245,13.760725 5.855412,21.131088 6.474094,13.090338 15.776249,24.314648 31.066824,37.486338 2.194525,1.89042 5.508093,4.58308 7.363483,5.98368 l 3.373436,2.54655 v 9.02442 c 0,10.25397 0.0916,10.89412 1.8439,12.88483 1.04671,1.18913 2.32836,1.97 3.84464,2.34243 0.43657,0.10723 13.35485,0.17606 28.70729,0.15294 l 27.91355,-0.042 z m -9.47667,-8.48323 c -0.99839,-0.45344 -1.63814,-1.07137 -2.39563,-2.31387 -0.28844,-0.47313 -0.32337,-0.46989 -0.92604,0.086 -2.00631,1.85061 -5.2565,1.33053 -5.2565,-0.84113 0,-1.17648 1.23692,-2.41879 2.80024,-2.81244 0.77173,-0.19432 1.17326,-0.44079 1.18248,-0.72584 0.008,-0.23739 0.22947,-5.49177 0.49288,-11.67641 0.2634,-6.18463 0.44475,-11.28535 0.40301,-11.33492 -0.0417,-0.0496 -0.71002,-0.23634 -1.48506,-0.41504 -0.77504,-0.1787 -1.3905,-0.43579 -1.36767,-0.57132 0.0228,-0.13553 0.72573,-2.89711 1.56201,-6.13684 0.83629,-3.23973 1.45884,-5.9521 1.38345,-6.02749 -0.0754,-0.0754 -0.74853,-0.20948 -1.49587,-0.298 -0.74734,-0.0885 -1.3588,-0.27642 -1.3588,-0.41759 0,-0.23931 4.46813,-14.997689 6.50179,-21.475607 0.49871,-1.58855 0.85731,-2.937703 0.79689,-2.998118 -0.0604,-0.06042 -1.81191,0.673759 -3.89221,1.6315 -2.08029,0.957741 -3.96567,1.736958 -4.18972,1.731595 -0.22406,-0.0054 -2.84816,-1.788454 -5.83133,-3.962419 l -5.42396,-3.952663 -2.38886,2.441062 c -1.31387,1.342586 -3.53973,3.666241 -4.94635,5.163679 l -2.55749,2.722618 -5.74773,-1.333044 c -3.16126,-0.733177 -5.78496,-1.295832 -5.83044,-1.250345 -0.0455,0.04549 2.69909,8.426172 6.09905,18.623752 l 6.18175,18.54105 -0.96121,0.14629 c -0.52867,0.0805 -2.24114,0.22876 -3.80549,0.32956 l -2.84427,0.18326 0.005,2.01441 c 0.003,1.10793 0.17859,5.70535 0.39106,10.2165 0.21247,4.51114 0.38893,8.45113 0.39213,8.75551 0.004,0.4127 0.26999,0.63259 1.04464,0.86468 1.13124,0.33893 2.40075,1.62848 2.40075,2.43865 0,1.57037 -2.78097,2.14359 -4.55592,0.93907 l -0.92561,-0.62813 -0.46116,0.78068 c -0.91699,1.55234 -3.55542,2.39043 -4.38366,1.39246 -0.89273,-1.07567 0.17539,-3.34441 1.97704,-4.19935 0.51754,-0.24559 0.93629,-0.58976 0.93056,-0.76484 -0.006,-0.17507 -0.93107,-4.96175 -2.05631,-10.63706 l -2.04589,-10.31875 -1.58171,0.007 c -0.86995,0.004 -3.15205,0.10821 -5.07133,0.2315 -3.33837,0.21446 -3.48422,0.20268 -3.36539,-0.2719 0.23679,-0.94572 4.56639,-28.00831 4.49268,-28.08201 -0.0407,-0.0407 -0.99118,2.57756 -2.11212,5.81843 -1.12093,3.24087 -2.18176,6.19015 -2.3574,6.55395 -0.44921,0.93044 -2.100549,1.71088 -2.813133,1.32951 -0.886479,-0.47443 -0.687142,-1.53747 0.500078,-2.66685 0.977805,-0.93016 1.263065,-1.62008 4.659675,-11.26997 1.98996,-5.653529 3.7281,-10.487506 3.86254,-10.742167 0.3234,-0.612643 0.0516,-0.599708 -3.87524,0.184382 -3.02422,0.603864 -3.21817,0.612968 -4.08397,0.191723 -1.404689,-0.683443 -2.007164,-1.695797 -1.969212,-3.308932 0.02606,-1.108036 0.318254,-1.927966 1.527365,-4.28607 l 1.495127,-2.915925 -0.53037,-1.541553 c -0.620039,-1.802177 -1.134995,-5.497795 -0.897775,-6.442953 0.09066,-0.361207 0.04284,-0.733258 -0.106264,-0.826778 -0.149101,-0.09353 -1.050235,-1.420199 -2.002518,-2.948167 l -1.731423,-2.778125 0.974519,-0.18319 c 0.535988,-0.100753 1.722064,-0.19005 2.635731,-0.198437 l 1.66121,-0.01524 0.6606,-1.521354 c 0.36333,-0.836745 0.92827,-2.10317 1.25543,-2.814278 l 0.59483,-1.292923 0.97156,1.574043 0.97155,1.574043 h 1.68148 c 4.14837,0 8.38183,3.766267 10.15455,9.033933 0.31267,0.929095 0.82005,1.865466 1.12752,2.080821 0.65737,0.460444 0.71458,0.961401 0.16214,1.419881 -0.29208,0.242409 -0.39858,0.897173 -0.40334,2.479791 -0.008,2.574113 -0.30548,3.98906 -1.24171,5.901103 -0.64437,1.315971 -2.14967,2.953475 -3.3994,3.697946 -0.45418,0.270558 -0.46712,0.348525 -0.11492,0.692563 0.34985,0.341749 10.42174,2.839013 11.45022,2.839013 0.62959,0 8.48506,-8.427217 9.14161,-9.806971 0.31616,-0.664409 0.57483,-1.334439 0.57483,-1.488959 0,-0.535249 0.7769,-0.936498 1.47433,-0.761455 1.04013,0.261057 1.96526,1.404552 1.96526,2.429148 0,0.835199 0.22513,1.037947 4.63628,4.175201 l 4.63629,3.297373 4.4152,-2.036548 4.41519,-2.036551 0.43034,-1.449681 0.43034,-1.449681 -1.25052,-1.34233 c -2.12099,-2.276715 -3.16104,-5.021503 -3.16104,-8.342251 0,-1.327647 -0.0989,-1.80613 -0.39687,-1.920483 -0.7463,-0.28638 -0.35306,-1.604566 0.48329,-1.62006 0.12029,-0.0021 0.44893,-0.658894 0.73032,-1.459259 1.02854,-2.925588 3.28074,-5.449879 5.95121,-6.670196 0.98365,-0.449495 1.78686,-0.594227 3.28622,-0.592153 2.59741,0.0036 4.26475,0.731795 6.08685,2.658404 3.47442,3.673683 4.13486,9.513469 1.65065,14.595617 -0.78765,1.611371 -2.78411,3.962648 -3.84824,4.532148 -1.28161,0.685901 -1.33006,0.248611 2.2147,19.988827 1.31907,7.34566 1.33324,7.39839 2.21883,8.25847 1.50498,1.46161 1.4908,3.53096 -0.0242,3.53096 -0.92486,0 -2.39367,-1.51025 -2.59154,-2.66465 -0.86047,-5.02016 -2.82701,-15.710141 -2.90426,-15.787399 -0.0951,-0.09511 -0.2406,3.164669 -0.63456,14.218719 l -0.18388,5.15938 h -0.92604 -0.92604 l -1.20884,6.87916 -1.20883,6.87917 -1.345,-0.0882 c -1.29101,-0.0846 -1.35132,-0.0581 -1.5027,0.66146 -0.2683,1.27524 -3.86276,21.06912 -3.86276,21.27135 0,0.10488 0.27831,0.26054 0.61847,0.34592 1.39766,0.35079 3.0857,2.46919 3.0857,3.87237 0,0.61171 -1.10537,1.85388 -1.64162,1.84479 -0.18852,-0.003 -0.82836,-0.22636 -1.42188,-0.49593 z m -37.4627,-18.68055 c -0.1306,-3.4925 -0.30059,-6.74878 -0.37775,-7.23617 -0.13646,-0.86192 -0.16699,-0.88118 -1.11557,-0.70401 -0.5364,0.10019 -1.01961,0.22581 -1.0738,0.27914 -0.0542,0.0533 0.40307,2.69186 1.01611,5.86338 1.38736,7.17728 1.62962,8.33807 1.71805,8.23206 0.0387,-0.0464 -0.0364,-2.9419 -0.16704,-6.4344 z m 37.22054,-2.62364 c 1.26377,-6.88375 1.26501,-7.0191 0.0645,-7.0296 -0.25466,-0.002 -0.46302,-0.18265 -0.46302,-0.40093 0,-0.21828 -0.10519,-0.39687 -0.23376,-0.39687 -0.32535,0 -0.51835,2.40852 -0.69966,8.73125 -0.0855,2.98317 -0.20677,5.78114 -0.2694,6.21771 -0.10832,0.75509 -0.10157,0.76154 0.13859,0.13229 0.13885,-0.3638 0.79708,-3.62804 1.46274,-7.25385 z"
         id="path311" /></g></g></svg>
